<?xml version="1.0" standalone="no"?>
<!DOCTYPE svg PUBLIC "-//W3C//DTD SVG 1.1//EN" "http://www.w3.org/Graphics/SVG/1.1/DTD/svg11.dtd">
<svg viewBox="0 0 861 738" style="--rows:6;--cols:7"
    class="use-grid_grid__mSHGZ works_grid__QIgkw">
    <g transform="scale(1.01) translate(-300 32)">
        <g data-line="works-l-5" transform="translate(0 0)">
            <path id="works-l-5"
                d="M 0 59 H 432 C 445.255 59 456 69.7452 456 83 V 209 M 0 72 H 415 C 428.255 72 439 82.7452 439 96 V 209 M 0 86 H 397 C 410.255 86 421 96.7452 421 110 V 209 M 0 99 H 379 C 392.255 99 403 109.745 403 123 V 209 M 0 114 H 361 C 374.255 114 385 124.745 385 138 V 209"
                stroke="var(--grey-secondary)"></path>
            <circle cx="0" cy="0" r="3"></circle>
            <circle cx="0" cy="0" r="3"></circle>
            <circle cx="0" cy="0" r="3"></circle>
            <circle cx="0" cy="0" r="3"></circle>
        </g>
        <g data-line="works-l-3" transform="translate(0 0)">
            <path id="works-l-3"
                d="M 1446 59 H 1014 C 1000.75 59 990 69.7452 990 83 V 209 M 1446 72 H 1031 C 1017.75 72 1007 82.7452 1007 96 V 209 M 1446 99 H 1067 C 1053.75 99 1043 109.745 1043 123 V 209 M 1446 86 H 1049 C 1035.75 86 1025 96.7452 1025 110 V 209 M 1446 114 H 1085 C 1071.75 114 1061 124.745 1061 138 V 209"
                stroke="var(--grey-secondary)"></path>
            <circle cx="0" cy="0" r="3"></circle>
            <circle cx="0" cy="0" r="3"></circle>
            <circle cx="0" cy="0" r="3"></circle>
            <circle cx="0" cy="0" r="3"></circle>
        </g>
        <g data-line="works-l-4" transform="translate(0 0)">
            <path id="works-l-4"
                d="M 772 0 V 209 M 750.224 0 V 209 M 729.448 0 V 209 M 704.776 0 V 209 M 684 0 V 209"
                stroke="var(--grey-secondary)"></path>
            <circle cx="0" cy="0" r="3"></circle>
            <circle cx="0" cy="0" r="3"></circle>
            <circle cx="0" cy="0" r="3"></circle>
            <circle cx="0" cy="0" r="3"></circle>
            <circle cx="0" cy="0" r="3"></circle>
        </g>
    </g>
    <g transform="translate(25 10)">
        <g data-part="btc">
            <path
                d="M353.953 524.5L459.248 524.5C463.436 524.5 467.467 522.907 470.524 520.045L482.659 508.685C485.531 505.996 489.318 504.5 493.253 504.5H669C677.56 504.5 684.5 511.44 684.5 520V686C684.5 694.56 677.56 701.5 669 701.5H141C132.44 701.5 125.5 694.56 125.5 686V520C125.5 511.44 132.44 504.5 141 504.5H319.114C322.876 504.5 326.51 505.869 329.338 508.35L343.069 520.401C346.079 523.043 349.947 524.5 353.953 524.5Z"
                stroke="url(#gradient-0)"></path>
            <text fill="var(--text)" text-anchor="middle"
                dominant-baseline="middle">
                <tspan x="407.17" y="611.35" font-size="32" font-weight="bold">Bitcoin Network
                </tspan>
                <tspan y="648.25" x="407.17" fill="var(--text-secondary)" font-size="12"
                    font-weight="600" letter-spacing="0.13em">Aggregated Proof Verification on
                    Bitcoin</tspan>
            </text>
        </g>
        <g data-part="aggreted">
            <path data-o="true"
                d="M33.7605 239.891C36.799 236.163 41.3532 234 46.1625 234H149.214C154.095 234 158.708 236.227 161.744 240.049L170.401 250.951C173.437 254.773 178.05 257 182.931 257H321.215C326.024 257 330.578 254.837 333.617 251.109L342.76 239.891C345.799 236.163 350.353 234 355.163 234H458.214C463.095 234 467.708 236.227 470.744 240.049L479.401 250.951C482.437 254.773 487.05 257 491.931 257H624.215C629.024 257 633.578 254.837 636.617 251.109L645.76 239.891C648.799 236.163 653.353 234 658.163 234H761.214C766.095 234 770.708 236.227 773.744 240.049L782.59 251.188C785.506 254.86 789.939 257 794.628 257V257C803.118 257 810 263.882 810 272.372V439C810 447.837 802.837 455 794 455L494.321 455C490.26 455 486.35 456.544 483.386 459.32L470.183 471.68C467.218 474.456 463.309 476 459.248 476L353.953 476C350.069 476 346.317 474.587 343.398 472.025L328.529 458.975C325.61 456.413 321.858 455 317.974 455H16C7.16344 455 0 447.837 0 439V270.434C0 263.015 6.01453 257 13.4338 257V257C17.4718 257 21.2956 255.184 23.8468 252.054L33.7605 239.891Z"
                stroke="url(#gradient-1)" fill="var(--body)"></path>
            <mask id="mask-1" style="mask-type:alpha" maskUnits="userSpaceOnUse" x="21" y="299"
                width="769" height="113" stroke="black">
                <path
                    d="M21 300H100.201C103.914 300 107.475 301.475 110.101 304.101L150.399 344.399C153.025 347.025 156.586 348.5 160.299 348.5H265">
                </path>
                <path
                    d="M22 411H155.201C158.914 411 162.475 409.525 165.101 406.899L213.399 358.601C216.025 355.975 219.586 354.5 223.299 354.5H264">
                </path>
                <path d="M21 336H108.201C111.914 336 115.475 334.525 118.101 331.899L128 322">
                </path>
                <path d="M22 376H147.201C150.914 376 154.475 377.475 157.101 380.101L174 397">
                </path>
                <path
                    d="M546.5 349H612.201C615.914 349 619.475 347.525 622.101 344.899L657.399 309.601C660.025 306.975 663.586 305.5 667.299 305.5H789">
                </path>
                <path
                    d="M546 355.5H661.201C664.914 355.5 668.475 356.975 671.101 359.601L717.899 406.399C720.525 409.025 724.086 410.5 727.799 410.5H788.5">
                </path>
                <path d="M697 386H621.799C618.086 386 614.525 384.525 611.899 381.899L586 356">
                </path>
                <path d="M789 381H755.799C752.086 381 748.525 382.475 745.899 385.101L722 409">
                </path>
                <path
                    d="M789.5 348.5H730.799C727.086 348.5 723.525 347.025 720.899 344.399L682.5 306">
                </path>
                <path d="M117 311H171.701C175.414 311 178.975 312.475 181.601 315.101L215.5 349">
                </path>
            </mask>
            <g mask="url(#mask-1)">
                <rect x="21" y="285" width="768" height="141" fill="url(#gradient-2)"></rect>
            </g>
            <g data-line="works-l-6" transform="translate(0 0)">
                <path id="works-l-6"
                    d="M15.5 300H99.3726C103.616 300 107.686 301.686 110.686 304.686L149.814 343.814C152.814 346.814 156.884 348.5 161.127 348.5H274">
                </path>
                <circle cx="0" cy="0" r="3"></circle>
                <circle cx="0" cy="0" r="3"></circle>
            </g>
            <g data-line="works-l-7" transform="translate(0 0)">
                <path id="works-l-7"
                    d="M15.5 300H99.3726C103.616 300 107.686 301.686 110.686 304.686L117.5 311.5H148.25H171.373C175.616 311.5 179.686 313.186 182.686 316.186L215 348.5H273.5">
                </path>
                <circle cx="0" cy="0" r="3"></circle>
                <circle cx="0" cy="0" r="3"></circle>
            </g>
            <g data-line="works-l-8" transform="translate(0 0)">
                <path id="works-l-8"
                    d="M15.5 336H107.036C111.183 336 115.167 334.39 118.15 331.51L128 322L149.814 343.814C152.814 346.814 156.884 348.5 161.127 348.5H273.5">
                </path>
                <circle cx="0" cy="0" r="3"></circle>
            </g>
            <g data-line="works-l-9" transform="translate(0 0)">
                <path id="works-l-9"
                    d="M16 411H154.331C158.599 411 162.69 409.295 165.695 406.263L212.305 359.237C215.31 356.205 219.401 354.5 223.669 354.5H270.5">
                </path>
                <circle cx="0" cy="0" r="3"></circle>
            </g>
            <g data-line="works-l-10" transform="translate(0 0)">
                <path id="works-l-10"
                    d="M13.5 376H146.373C150.616 376 154.686 377.686 157.686 380.686L174.5 397.5L212.814 359.186C215.814 356.186 219.884 354.5 224.127 354.5H270">
                </path>
                <circle cx="0" cy="0" r="3"></circle>
            </g>
            <g data-line="works-l-11" transform="translate(0 0)">
                <path id="works-l-11"
                    d="M795.5 305.5H667.737C663.429 305.5 659.303 307.237 656.292 310.319L623.208 344.181C620.197 347.263 616.071 349 611.763 349H542.5">
                </path>
                <circle cx="0" cy="0" r="3"></circle>
            </g>
            <g data-line="works-l-12" transform="translate(0 0)">
                <path id="works-l-12"
                    d="M793.5 381H756.627C752.384 381 748.314 382.686 745.314 385.686L723.599 407.401C722.436 408.564 720.554 408.574 719.379 407.423L697.5 386H622.627C618.384 386 614.314 384.314 611.314 381.314L585.5 355.5H541.5">
                </path>
                <circle cx="0" cy="0" r="3"></circle>
            </g>
            <g data-line="works-l-13" transform="translate(0 0)">
                <path id="works-l-13"
                    d="M794.5 348.5H731.182C726.906 348.5 722.808 346.788 719.803 343.747L682 305.5H667.737C663.429 305.5 659.303 307.237 656.292 310.319L623.208 344.181C620.197 347.263 616.071 349 611.763 349H541.5">
                </path>
                <circle cx="0" cy="0" r="3"></circle>
            </g>
            <g data-line="works-l-14" transform="translate(0 0)">
                <path id="works-l-14"
                    d="M794 410.5H729.085C724.867 410.5 720.819 408.834 717.823 405.865L671.677 360.135C668.681 357.166 664.633 355.5 660.415 355.5H542">
                </path>
                <circle cx="0" cy="0" r="3"></circle>
            </g>
            <path data-o="true"
                d="M379 268H433V285H379V268Z M790 294H803V421H790V294Z M7 294H20V421H7V294Z"
                fill="var(--body)"></path>
            <path
                d="M32 278.5H113C119.351 278.5 124.5 283.649 124.5 290V422C124.5 428.351 119.351 433.5 113 433.5H32C25.6487 433.5 20.5 428.351 20.5 422V290C20.5 283.649 25.6487 278.5 32 278.5Z"
                stroke="url(#gradient-3)"></path>
            <path
                d="M778 433.5L697 433.5C690.649 433.5 685.5 428.351 685.5 422L685.5 290C685.5 283.649 690.649 278.5 697 278.5L778 278.5C784.351 278.5 789.5 283.649 789.5 290L789.5 422C789.5 428.351 784.351 433.5 778 433.5Z"
                stroke="url(#gradient-5)"></path>
            <g data-part="middle">
                <path data-o="true"
                    d="M546 337C546 328.163 538.837 321 530 321H280C271.163 321 264 328.163 264 337V363C264 371.837 271.163 379 280 379H308.737C314.738 379 320.235 382.359 322.974 387.699L333.539 408.301C336.278 413.641 341.775 417 347.776 417H463.224C469.225 417 474.722 413.641 477.461 408.301L488.026 387.699C490.765 382.359 496.262 379 502.263 379H530C538.837 379 546 371.837 546 363V337Z"
                    fill="url(#gradient-1)"></path>
                <text fill="var(--body)" font-size="25"
                    font-weight="bold">
                    <tspan x="283" y="358.424">Aggregated zk proof</tspan>
                </text>
                <mask id="mask-2" style="mask-type:alpha" maskUnits="userSpaceOnUse" x="327" y="375"
                    width="158" height="42">
                    <path data-o="true" d="M327 375H485L463.5 417H345.5L327 375Z"
                        fill="url(#gradient-6)"></path>
                </mask>
                <g mask="url(#mask-2)" stroke="var(--body)" stroke-dasharray="2 4" data-anim="true">
                    <path
                        d="M331 375L352 417M331 375L352 417 M344 375L365 417M344 375L365 417 M357 375L378 417M357 375L378 417 M370 375L391 417M370 375L391 417 M481 375L460 417M481 375L460 417 M468 375L447 417M468 375L447 417 M455 375L434 417M455 375L434 417 M442 375L421 417M442 375L421 417">
                    </path>
                </g>
                <text fill="var(--body)" font-size="10" font-weight="600"
                    letter-spacing="0.17em">
                    <tspan x="338.141" y="379.55">PROOF AGGREGATION</tspan>
                </text>
            </g>
            <use href="/img/sprites.svg#logo" fill="var(--text)"
                transform="scale(.85) translate(325 333)"></use>
        </g>
        <g data-part="arrow" stroke="url(#gradient-0)">
            <g>
                <path data-arrow="true"
                    d="M4.35355 4.85355C4.54882 4.65829 4.54882 4.34171 4.35355 4.14645L1.17157 0.964466C0.976311 0.769204 0.659729 0.769204 0.464466 0.964466C0.269204 1.15973 0.269204 1.47631 0.464466 1.67157L3.29289 4.5L0.464466 7.32843C0.269204 7.52369 0.269204 7.84027 0.464466 8.03553C0.659728 8.2308 0.97631 8.2308 1.17157 8.03553L4.35355 4.85355ZM4 4L3 4L3 5L4 5L4 4Z"
                    stroke="var(--text)"></path>
                <path data-arrow-line="arrow-1" id="arrow-1"
                    d="M353 417L358.903 429.199C359.954 431.371 360.5 433.754 360.5 436.168V531C360.5 539.837 353.337 547 344.5 547H324C319.582 547 316 543.418 316 539V539C316 534.582 312.418 531 308 531H275"
                    style="stroke-dasharray:220;stroke-dashoffset:220"></path>
            </g>
            <g>
                <path data-arrow="true"
                    d="M4.35355 4.85355C4.54882 4.65829 4.54882 4.34171 4.35355 4.14645L1.17157 0.964466C0.976311 0.769204 0.659729 0.769204 0.464466 0.964466C0.269204 1.15973 0.269204 1.47631 0.464466 1.67157L3.29289 4.5L0.464466 7.32843C0.269204 7.52369 0.269204 7.84027 0.464466 8.03553C0.659728 8.2308 0.97631 8.2308 1.17157 8.03553L4.35355 4.85355ZM4 4L3 4L3 5L4 5L4 4Z"
                    stroke="var(--text)"></path>
                <path data-arrow-line="arrow-2" id="arrow-2"
                    d="M365.5 417L371.403 429.199C372.454 431.371 373 433.754 373 436.168V545C373 553.837 365.837 561 357 561H339"
                    style="stroke-dasharray:174;stroke-dashoffset:174"></path>
            </g>
            <g>
                <path data-arrow="true"
                    d="M4.35355 4.85355C4.54882 4.65829 4.54882 4.34171 4.35355 4.14645L1.17157 0.964466C0.976311 0.769204 0.659729 0.769204 0.464466 0.964466C0.269204 1.15973 0.269204 1.47631 0.464466 1.67157L3.29289 4.5L0.464466 7.32843C0.269204 7.52369 0.269204 7.84027 0.464466 8.03553C0.659728 8.2308 0.97631 8.2308 1.17157 8.03553L4.35355 4.85355ZM4 4L3 4L3 5L4 5L4 4Z"
                    stroke="var(--text)"></path>
                <path data-arrow-line="arrow-3" id="arrow-3"
                    d="M379 417L385.229 429.113C386.393 431.376 387 433.885 387 436.43V573.5"
                    style="stroke-dasharray:159;stroke-dashoffset:159"></path>
            </g>
            <g>
                <path data-arrow="true"
                    d="M4.35355 4.85355C4.54882 4.65829 4.54882 4.34171 4.35355 4.14645L1.17157 0.964466C0.976311 0.769204 0.659729 0.769204 0.464466 0.964466C0.269204 1.15973 0.269204 1.47631 0.464466 1.67157L3.29289 4.5L0.464466 7.32843C0.269204 7.52369 0.269204 7.84027 0.464466 8.03553C0.659728 8.2308 0.97631 8.2308 1.17157 8.03553L4.35355 4.85355ZM4 4L3 4L3 5L4 5L4 4Z"
                    stroke="var(--text)"></path>
                <path data-arrow-line="arrow-4" id="arrow-4"
                    d="M391.5 417L397.403 429.199C398.454 431.371 399 433.754 399 436.168V553.5"
                    style="stroke-dasharray:139;stroke-dashoffset:139"></path>
            </g>
            <g>
                <path data-arrow="true"
                    d="M4.35355 4.85355C4.54882 4.65829 4.54882 4.34171 4.35355 4.14645L1.17157 0.964466C0.976311 0.769204 0.659729 0.769204 0.464466 0.964466C0.269204 1.15973 0.269204 1.47631 0.464466 1.67157L3.29289 4.5L0.464466 7.32843C0.269204 7.52369 0.269204 7.84027 0.464466 8.03553C0.659728 8.2308 0.97631 8.2308 1.17157 8.03553L4.35355 4.85355ZM4 4L3 4L3 5L4 5L4 4Z"
                    stroke="var(--text)"></path>
                <path data-arrow-line="arrow-5" id="arrow-5"
                    d="M420.5 417L414.597 429.199C413.546 431.371 413 433.754 413 436.168V564.5"
                    style="stroke-dasharray:150;stroke-dashoffset:150"></path>
            </g>
            <g>
                <path data-arrow="true"
                    d="M4.35355 4.85355C4.54882 4.65829 4.54882 4.34171 4.35355 4.14645L1.17157 0.964466C0.976311 0.769204 0.659729 0.769204 0.464466 0.964466C0.269204 1.15973 0.269204 1.47631 0.464466 1.67157L3.29289 4.5L0.464466 7.32843C0.269204 7.52369 0.269204 7.84027 0.464466 8.03553C0.659728 8.2308 0.97631 8.2308 1.17157 8.03553L4.35355 4.85355ZM4 4L3 4L3 5L4 5L4 4Z"
                    stroke="var(--text)"></path>
                <path data-arrow-line="arrow-6" id="arrow-6"
                    d="M434.5 417L428.597 429.199C427.546 431.371 427 433.754 427 436.168V578.5"
                    style="stroke-dasharray:164;stroke-dashoffset:164"></path>
            </g>
            <g>
                <path data-arrow="true"
                    d="M4.35355 4.85355C4.54882 4.65829 4.54882 4.34171 4.35355 4.14645L1.17157 0.964466C0.976311 0.769204 0.659729 0.769204 0.464466 0.964466C0.269204 1.15973 0.269204 1.47631 0.464466 1.67157L3.29289 4.5L0.464466 7.32843C0.269204 7.52369 0.269204 7.84027 0.464466 8.03553C0.659728 8.2308 0.97631 8.2308 1.17157 8.03553L4.35355 4.85355ZM4 4L3 4L3 5L4 5L4 4Z"
                    stroke="var(--text)"></path>
                <path data-arrow-line="arrow-7" id="arrow-7"
                    d="M447.5 417L441.597 429.199C440.546 431.371 440 433.754 440 436.168V545C440 553.837 447.163 561 456 561H474"
                    style="stroke-dasharray:174;stroke-dashoffset:174"></path>
            </g>
            <g>
                <path data-arrow="true"
                    d="M4.35355 4.85355C4.54882 4.65829 4.54882 4.34171 4.35355 4.14645L1.17157 0.964466C0.976311 0.769204 0.659729 0.769204 0.464466 0.964466C0.269204 1.15973 0.269204 1.47631 0.464466 1.67157L3.29289 4.5L0.464466 7.32843C0.269204 7.52369 0.269204 7.84027 0.464466 8.03553C0.659728 8.2308 0.97631 8.2308 1.17157 8.03553L4.35355 4.85355ZM4 4L3 4L3 5L4 5L4 4Z"
                    stroke="var(--text)"></path>
                <path data-arrow-line="arrow-8" id="arrow-8"
                    d="M460 417L454.097 429.199C453.046 431.371 452.5 433.754 452.5 436.168V531C452.5 539.837 459.663 547 468.5 547H489C493.418 547 497 543.418 497 539V539C497 534.582 500.582 531 505 531H538"
                    style="stroke-dasharray:220;stroke-dashoffset:220"></path>
            </g>
        </g>
        <rect x="412.5" y="282.5" width="129" height="22" rx="11" stroke="var(--text)"
            fill="var(--body)"></rect>
        <text fill="var(--text)" font-size="13"
            letter-spacing="-0.03em">
            <tspan x="426.022" y="298.148">Verification Layer</tspan>
        </text>
    </g>
    <rect x="-307" y="0" width="200" height="200" fill="url(#bg-1)"></rect>
    <rect x="962" y="0" width="200" height="200" fill="url(#bg-2)"></rect>
    <rect x="330" y="28" width="200" height="150" fill="url(#bg-3)"></rect>
</svg>