<svg width="179" height="54" viewBox="0 0 179 54" fill="none" xmlns="http://www.w3.org/2000/svg">
<g clip-path="url(#clip0_6459_18068)">
<mask id="mask0_6459_18068" style="mask-type:luminance" maskUnits="userSpaceOnUse" x="0" y="-1" width="179" height="55">
<path d="M178.876 -0.000976562H0V53.6618H178.876V-0.000976562Z" fill="white"/>
</mask>
<g mask="url(#mask0_6459_18068)">
<path d="M53.6628 -0.000976562H0V53.6618H53.6628V-0.000976562Z" fill="#1C1C1C"/>
<path fill-rule="evenodd" clip-rule="evenodd" d="M5.30957 5.86719H8.94299H14.8124V9.5006H8.94299V44.1578H14.8124V47.7912H8.94299H5.30957V5.86719ZM44.7182 5.86719H38.8488V9.5006H44.7182V44.1578H38.8488V47.7912H44.7182H48.3516V5.86719H44.7182ZM40.8052 30.4626V33.2576H39.6873V39.9654H36.6128V33.2576H33.5384V39.9654H30.464V33.2576H29.346V30.4626H40.8052ZM12.8548 36.6076L15.8378 35.074L12.8548 33.5407L14.392 30.8779L17.2117 32.6947L17.0483 29.3446H20.1227L19.9593 32.6947L22.7788 30.8779L24.316 33.5407L21.333 35.074L24.316 36.6076L22.7788 39.2703L19.9593 37.4536L20.1227 40.8039H17.0483L17.2117 37.4536L14.392 39.2703L12.8548 36.6076ZM32.3279 18.584L29.3449 20.1175L30.8821 22.7801L33.7019 20.9634L33.5384 24.3138H36.6128L36.4493 20.9635L39.2689 22.7801L40.8061 20.1175L37.8231 18.584L40.8061 17.0505L39.2689 14.3879L36.4493 16.2045L36.6128 12.8545H33.5384L33.7019 16.2046L30.8821 14.3879L29.3449 17.0505L32.3279 18.584ZM17.0482 24.5933V20.1214H12.5764V17.0469H17.0482V12.575H20.1227V17.0469H24.5946V20.1214H20.1227V24.5933H17.0482Z" fill="white"/>
<path d="M66.7032 37.0958C65.2887 37.0958 64.0098 36.8535 62.8664 36.3691C61.7425 35.8847 60.8509 35.1871 60.1922 34.2762C59.5334 33.3654 59.1941 32.2899 59.1748 31.0498H63.5349C63.593 31.8829 63.8837 32.542 64.4069 33.0263C64.9494 33.5107 65.6859 33.753 66.616 33.753C67.5655 33.753 68.3117 33.5303 68.8542 33.0845C69.3967 32.6194 69.6681 32.0188 69.6681 31.2823C69.6681 30.6817 69.4839 30.1875 69.1158 29.7999C68.7477 29.4122 68.2827 29.112 67.7206 28.8988C67.1781 28.6662 66.4224 28.4144 65.4533 28.143C64.1355 27.7555 63.06 27.3776 62.2269 27.0094C61.413 26.6218 60.7056 26.0502 60.105 25.2944C59.5236 24.5193 59.2329 23.4923 59.2329 22.2133C59.2329 21.0118 59.5334 19.9654 60.134 19.074C60.7347 18.1826 61.5776 17.5044 62.6629 17.0393C63.7482 16.5549 64.9883 16.3126 66.3835 16.3126C68.4764 16.3126 70.172 16.8261 71.4703 17.8532C72.7881 18.8609 73.5148 20.2755 73.6503 22.097H69.174C69.1351 21.3994 68.8349 20.8278 68.2729 20.3821C67.7304 19.917 67.0037 19.6844 66.0928 19.6844C65.2982 19.6844 64.6587 19.8879 64.1744 20.2949C63.7093 20.7018 63.4768 21.2928 63.4768 22.068C63.4768 22.6105 63.6512 23.066 64 23.4341C64.3681 23.7829 64.8139 24.0736 65.3371 24.3061C65.8796 24.5193 66.6353 24.7712 67.6043 25.0619C68.9221 25.4495 69.9976 25.837 70.8308 26.2246C71.664 26.6122 72.3812 27.1935 72.9818 27.9686C73.5824 28.7437 73.8829 29.761 73.8829 31.0207C73.8829 32.106 73.602 33.1135 73.0399 34.0437C72.4779 34.9739 71.6545 35.7198 70.5692 36.2819C69.4839 36.8244 68.1955 37.0958 66.7032 37.0958ZM86.3346 20.5565C88.253 20.5565 89.8034 21.1669 90.9854 22.3877C92.1673 23.5892 92.7585 25.2751 92.7585 27.4454V36.8923H88.6891V27.9977C88.6891 26.7187 88.3693 25.7401 87.7298 25.0619C87.0903 24.3643 86.2183 24.0155 85.1138 24.0155C83.9899 24.0155 83.0983 24.3643 82.4396 25.0619C81.8001 25.7401 81.4803 26.7187 81.4803 27.9977V36.8923H77.4109V20.789H81.4803V22.7946C82.0228 22.097 82.711 21.5545 83.5441 21.1669C84.3969 20.7599 85.327 20.5565 86.3346 20.5565ZM95.5819 28.7825C95.5819 27.1547 95.9017 25.7111 96.5411 24.4515C97.1999 23.1919 98.0817 22.223 99.1863 21.5448C100.31 20.8665 101.56 20.5274 102.936 20.5274C104.137 20.5274 105.184 20.7696 106.075 21.2541C106.986 21.7385 107.712 22.3489 108.255 23.0853V20.789H112.354V36.8923H108.255V34.5378C107.732 35.2936 107.005 35.9233 106.075 36.4272C105.164 36.9116 104.108 37.1539 102.907 37.1539C101.55 37.1539 100.31 36.8051 99.1863 36.1075C98.0817 35.4099 97.1999 34.4314 96.5411 33.1717C95.9017 31.8927 95.5819 30.4296 95.5819 28.7825ZM108.255 28.8407C108.255 27.8524 108.061 27.0094 107.674 26.3118C107.286 25.5948 106.763 25.0522 106.104 24.684C105.445 24.2964 104.738 24.1027 103.982 24.1027C103.227 24.1027 102.529 24.2868 101.89 24.655C101.25 25.0231 100.727 25.5657 100.32 26.2827C99.9322 26.9803 99.7385 27.8136 99.7385 28.7825C99.7385 29.7515 99.9322 30.604 100.32 31.3404C100.727 32.0573 101.25 32.6096 101.89 32.9973C102.548 33.3849 103.246 33.5786 103.982 33.5786C104.738 33.5786 105.445 33.3944 106.104 33.0263C106.763 32.6387 107.286 32.0962 107.674 31.3986C108.061 30.6817 108.255 29.8289 108.255 28.8407ZM120.398 23.2888C120.921 22.4361 121.599 21.7676 122.432 21.2831C123.285 20.7987 124.254 20.5565 125.339 20.5565V24.8294H124.264C122.985 24.8294 122.016 25.1297 121.357 25.7304C120.717 26.3312 120.398 27.3776 120.398 28.8697V36.8923H116.328V20.789H120.398V23.2888ZM137.614 36.8923L132.149 30.0324V36.8923H128.08V15.3825H132.149V27.6198L137.556 20.789H142.846L135.754 28.8697L142.904 36.8923H137.614ZM147.119 18.8706C146.402 18.8706 145.801 18.6477 145.316 18.202C144.851 17.7369 144.619 17.1653 144.619 16.487C144.619 15.8088 144.851 15.2468 145.316 14.8011C145.801 14.3361 146.402 14.1035 147.119 14.1035C147.836 14.1035 148.427 14.3361 148.892 14.8011C149.376 15.2468 149.618 15.8088 149.618 16.487C149.618 17.1653 149.376 17.7369 148.892 18.202C148.427 18.6477 147.836 18.8706 147.119 18.8706ZM149.124 20.789V36.8923H145.055V20.789H149.124ZM160.528 24.1317H157.709V36.8923H153.581V24.1317H151.75V20.789H153.581V19.9751C153.581 17.9985 154.143 16.5452 155.267 15.615C156.391 14.6849 158.086 14.2489 160.354 14.307V17.7369C159.365 17.7176 158.677 17.8823 158.29 18.2311C157.902 18.5799 157.709 19.2097 157.709 20.1205V20.789H160.528V24.1317ZM178.571 20.789L168.601 44.5079H164.27L167.758 36.4854L161.305 20.789H165.868L170.025 32.0381L174.24 20.789H178.571Z" fill="white"/>
</g>
</g>
<defs>
<clipPath id="clip0_6459_18068">
<rect width="178.876" height="53.6628" fill="white"/>
</clipPath>
</defs>
</svg>
