<svg width="191" height="51" viewBox="0 0 191 51" fill="none" xmlns="http://www.w3.org/2000/svg">
<path d="M22.8395 16.5149C22.8395 20.0604 19.9657 22.9344 16.4204 22.9344C12.8751 22.9344 10 20.0604 10 16.5149C10 12.9695 12.8739 10.0955 16.4204 10.0955C19.9645 10.0955 22.8395 12.9695 22.8395 16.5149Z" fill="white"/>
<path fill-rule="evenodd" clip-rule="evenodd" d="M34.6522 22.9124C37.9526 22.6403 40.5461 19.8801 40.5461 16.5149C40.5461 12.9695 37.6672 10.0955 34.1158 10.0955C30.5643 10.0955 27.6854 12.9695 27.6854 16.5149V16.5157L27.6842 16.5148C27.6842 16.5148 27.1269 21.0651 24.4691 23.737C22.0354 26.1835 16.4934 27.5869 15.5759 27.8062C12.4279 28.2238 10 30.9134 10 34.1694C10 37.7149 12.88 40.5889 16.4315 40.5889C17.7858 40.5889 19.0423 40.1709 20.0786 39.4572C23.7596 37.5015 27.0421 37.8287 30.718 39.6205C31.7039 40.2343 32.8683 40.5889 34.1158 40.5889C37.6672 40.5889 40.5461 37.7149 40.5461 34.1694C40.5461 30.6239 37.6672 27.7499 34.1158 27.7499C31.5453 27.7499 29.3272 29.2555 28.298 31.4314C27.7966 32.1233 26.8582 33.0827 25.5093 33.0827C24.3221 33.0827 23.58 32.8479 23.158 32.6427C23.691 31.4225 24.9405 28.8978 26.8813 26.9467C29.0007 24.8161 33.0844 23.3991 34.6522 22.9124Z" fill="white"/>
<path d="M74.5357 32.1917V36.3036H55.5469V33.0543L67.616 18.4561H55.794V14.3443H74.2043V17.5917L62.0949 32.1881H74.5357V32.1917ZM101.283 25.4482C101.283 25.8045 101.255 26.3108 101.2 26.9687H83.9413C84.2433 28.586 85.0268 29.8745 86.2881 30.8339C87.5787 31.7659 89.1713 32.2319 91.066 32.2319C93.4824 32.2319 95.4722 31.4369 97.0392 29.847L99.798 33.0122C98.8095 34.191 97.5609 35.081 96.0507 35.6841C94.5405 36.2871 92.838 36.5887 90.9433 36.5887C88.5269 36.5887 86.3998 36.1099 84.5582 35.1486C82.7184 34.1891 81.2906 32.8606 80.2746 31.161C79.2861 29.434 78.7918 27.4877 78.7918 25.3221C78.7918 23.184 79.2715 21.265 80.2343 19.5654C81.2228 17.8384 82.5812 16.4953 84.313 15.5358C86.0428 14.5763 87.9924 14.0957 90.1617 14.0957C92.3035 14.0957 94.2109 14.5745 95.8859 15.5358C97.5884 16.4678 98.9065 17.7982 99.84 19.5234C100.803 21.2267 101.283 23.2004 101.283 25.4482ZM90.1617 18.2113C88.5141 18.2113 87.1138 18.7047 85.9605 19.6915C84.8347 20.651 84.1482 21.9394 83.901 23.5567H96.3803C96.1606 21.9668 95.4869 20.6784 94.3629 19.6915C93.2389 18.7028 91.8367 18.2113 90.1617 18.2113ZM128.553 25.4482C128.553 25.8045 128.526 26.3108 128.471 26.9687H111.212C111.514 28.586 112.297 29.8745 113.56 30.8339C114.851 31.7659 116.444 32.2319 118.338 32.2319C120.755 32.2319 122.745 31.4369 124.31 29.847L127.068 33.0122C126.08 34.191 124.831 35.081 123.321 35.6841C121.811 36.2871 120.108 36.5887 118.214 36.5887C115.797 36.5887 113.67 36.1099 111.829 35.1486C109.989 34.1891 108.561 32.8606 107.545 31.161C106.557 29.434 106.062 27.4877 106.062 25.3221C106.062 23.184 106.542 21.265 107.505 19.5654C108.493 17.8384 109.853 16.4953 111.583 15.5358C113.313 14.5763 115.263 14.0957 117.432 14.0957C119.574 14.0957 121.481 14.5745 123.156 15.5358C124.859 16.4678 126.177 17.7982 127.11 19.5234C128.072 21.2267 128.553 23.2004 128.553 25.4482ZM117.432 18.2113C115.785 18.2113 114.384 18.7047 113.231 19.6915C112.105 20.651 111.419 21.9394 111.171 23.5567H123.652C123.433 21.9668 122.759 20.6784 121.633 19.6915C120.507 18.7028 119.107 18.2113 117.432 18.2113ZM155.338 14.3461L145.905 36.3036H140.593L131.162 14.3461H136.516L143.354 30.6292L150.398 14.3461H155.338ZM180.277 25.4482C180.277 25.8045 180.249 26.3108 180.194 26.9687H162.937C163.239 28.586 164.021 29.8745 165.284 30.8339C166.575 31.7659 168.167 32.2319 170.062 32.2319C172.479 32.2319 174.47 31.4369 176.033 29.847L178.794 33.0122C177.805 34.191 176.555 35.081 175.045 35.6841C173.534 36.2871 171.832 36.5887 169.937 36.5887C167.521 36.5887 165.392 36.1099 163.552 35.1486C161.712 34.1891 160.284 32.8606 159.268 31.161C158.28 29.434 157.786 27.4877 157.786 25.3221C157.786 23.184 158.265 21.265 159.228 19.5654C160.217 17.8384 161.575 16.4953 163.305 15.5358C165.035 14.5763 166.985 14.0957 169.154 14.0957C171.296 14.0957 173.203 14.5745 174.88 15.5358C176.582 16.4678 177.901 17.7982 178.834 19.5234C179.795 21.2267 180.277 23.2004 180.277 25.4482ZM169.156 18.2113C167.508 18.2113 166.108 18.7047 164.955 19.6915C163.828 20.651 163.142 21.9394 162.895 23.5567H175.376C175.156 21.9668 174.483 20.6784 173.357 19.6915C172.231 18.7028 170.831 18.2113 169.156 18.2113Z" fill="white"/>
</svg>
